<svg width="470" height="139" viewBox="0 0 470 139" fill="none" xmlns="http://www.w3.org/2000/svg" role="img" aria-label="Godot-AI-Animation: 1 stars, 0 forks, 138 downloads.">
  <style>
    .p-card { opacity: 0; animation: p-rise .55s ease-out 330ms both; }
    .p-name { font: 600 16px 'Segoe UI', Ubuntu, sans-serif; fill: #0969da; }
    .p-desc { font: 400 12px 'Segoe UI', Ubuntu, sans-serif; fill: #656d76; }
    .p-stat { font: 400 12px 'Segoe UI', Ubuntu, sans-serif; fill: #656d76; }
    @keyframes p-rise { from { opacity: 0; transform: translateY(8px); } to { opacity: 1; transform: translateY(0); } }
    @media (prefers-reduced-motion: reduce) { .p-card { animation: none; opacity: 1; } }
  </style>
  <g class="p-card">
    <rect x="0.5" y="0.5" rx="6" width="469" height="129" fill="#ffffff" stroke="#d0d7de"/>
    <svg x="25" y="24" width="16" height="16" viewBox="0 0 16 16"><path fill="#656d76" d="M2 2.5A2.5 2.5 0 014.5 0h8.75a.75.75 0 01.75.75v12.5a.75.75 0 01-.75.75h-2.5a.75.75 0 110-1.5h1.75v-2h-8a1 1 0 00-.714 1.7.75.75 0 01-1.072 1.05A2.495 2.495 0 012 11.5v-9zm10.5-1V9h-8c-.356 0-.694.074-1 .208V2.5a1 1 0 011-1h8zM5 12.25v3.25a.25.25 0 00.4.2l1.45-1.087a.25.25 0 01.3 0L8.6 15.7a.25.25 0 00.4-.2v-3.25a.25.25 0 00-.25-.25h-3.5a.25.25 0 00-.25.25z"/></svg>
    <text class="p-name" x="49" y="37">Godot-AI-Animation</text>
    <text class="p-desc" x="25" y="66">No description provided</text>
    <text class="p-desc" x="25" y="82"></text>
    <circle cx="30" cy="103" r="5" fill="#178600"/>
    <text x="40" y="107.5" class="p-stat">C#</text><svg x="76" y="93" width="14" height="14" viewBox="0 0 16 16"><path fill="#656d76" d="M8 .25a.75.75 0 01.673.418l1.882 3.815 4.21.612a.75.75 0 01.416 1.279l-3.046 2.97.719 4.192a.75.75 0 01-1.088.791L8 12.347l-3.766 1.98a.75.75 0 01-1.088-.79l.72-4.194L.818 6.374a.75.75 0 01.416-1.28l4.21-.611L7.327.668A.75.75 0 018 .25z"/></svg>
      <text x="94" y="107.5" class="p-stat">1</text><svg x="125" y="93" width="14" height="14" viewBox="0 0 16 16"><path fill="#656d76" d="M5 3.25a.75.75 0 11-1.5 0 .75.75 0 011.5 0zm0 2.122a2.25 2.25 0 10-1.5 0v.878A2.25 2.25 0 005.75 8.5h1.5v2.128a2.251 2.251 0 101.5 0V8.5h1.5a2.25 2.25 0 002.25-2.25v-.878a2.25 2.25 0 10-1.5 0v.878a.75.75 0 01-.75.75h-4.5A.75.75 0 015 6.25v-.878zm3.75 7.378a.75.75 0 11-1.5 0 .75.75 0 011.5 0zm3-8.75a.75.75 0 100-1.5.75.75 0 000 1.5z"/></svg>
      <text x="143" y="107.5" class="p-stat">0</text><svg x="174" y="93" width="14" height="14" viewBox="0 0 16 16"><path fill="#656d76" d="M7.47 10.78a.75.75 0 001.06 0l3.75-3.75a.75.75 0 00-1.06-1.06L8.75 8.44V1.75a.75.75 0 00-1.5 0v6.69L4.78 5.97a.75.75 0 00-1.06 1.06l3.75 3.75zM3.75 13a.75.75 0 000 1.5h8.5a.75.75 0 000-1.5h-8.5z"/></svg>
      <text x="192" y="107.5" class="p-stat">138</text>
  </g>
</svg>