
  <svg width="400" height="120" viewBox="0 0 400 120" fill="none" xmlns="http://www.w3.org/2000/svg">
    <style>
      .name { font: 600 18px 'Segoe UI', Ubuntu, Sans-Serif; fill: #006AFF; }
      .description { font: 400 12px 'Segoe UI', Ubuntu, Sans-Serif; fill: #586069; }
      .stat { font: 400 12px 'Segoe UI', Ubuntu, Sans-Serif; fill: #586069; }
      .lang-color { width: 12px; height: 12px; rx: 6px; }
    </style>

    <rect x="0.5" y="0.5" rx="4.5" height="99%" width="99%" fill="none" stroke="#e1e4e8" stroke-opacity="0"/>

    <g transform="translate(25, 35)">
        <text x="0" y="0" class="name">Unity-PlayerPrefsEx</text>
    </g>

    <g transform="translate(25, 60)">
        <text x="0" y="0" class="description">Lightweight package with variables, custom data model </text><text x="0" y="15" class="description">support and optional encryption. Under the hood it uses </text>
    </g>

    <g transform="translate(25, 100)">
        <!-- Language -->
        
        <g>
             <circle cx="6" cy="-4" r="6" fill="#178600"/>
             <text x="15" y="0" class="stat">C#</text>
        </g>
        

        <!-- Stars -->
        <g transform="translate(49.4, 0)">
             <svg x="0" y="-10" width="16" height="16" viewBox="0 0 16 16"><path fill="#586069" d="M8 .25a.75.75 0 01.673.418l1.882 3.815 4.21.612a.75.75 0 01.416 1.279l-3.046 2.97.719 4.192a.75.75 0 01-1.088.791L8 12.347l-3.766 1.98a.75.75 0 01-1.088-.79l.72-4.194L.818 6.374a.75.75 0 01.416-1.28l4.21-.611L7.327.668A.75.75 0 018 .25z"/></svg>
             <text x="20" y="0" class="stat">45</text>
        </g>

        <!-- Forks -->
        <g transform="translate(103.8, 0)">
             <svg x="0" y="-10" width="16" height="16" viewBox="0 0 16 16"><path fill="#586069" d="M5 3.25a.75.75 0 11-1.5 0 .75.75 0 011.5 0zm0 2.122a2.25 2.25 0 10-1.5 0v.878A2.25 2.25 0 005.75 8.5h1.5v2.128a2.251 2.251 0 101.5 0V8.5h1.5a2.25 2.25 0 002.25-2.25v-.878a2.25 2.25 0 10-1.5 0v.878a.75.75 0 01-.75.75h-4.5A.75.75 0 015 6.25v-.878zm3.75 7.378a.75.75 0 11-1.5 0 .75.75 0 011.5 0zm3-8.75a.75.75 0 100-1.5.75.75 0 000 1.5z"/></svg>
             <text x="15" y="0" class="stat">3</text>
        </g>
    </g>

    <!-- Downloads (right side) -->
    
        <g transform="translate(375, 100)">
             <svg x="-49.67999999999999" y="-10" width="16" height="16" viewBox="0 0 16 16"><path fill="#586069" d="M2.75 14A1.75 1.75 0 011 12.25v-2.5a.75.75 0 011.5 0v2.5c0 .138.112.25.25.25h10.5a.25.25 0 00.25-.25v-2.5a.75.75 0 011.5 0v2.5A1.75 1.75 0 0113.25 14H2.75z"/><path fill="#586069" d="M7.25 7.689V2a.75.75 0 011.5 0v5.689l1.97-1.969a.749.749 0 111.06 1.06l-3.25 3.25a.749.749 0 01-1.06 0L4.22 6.78a.749.749 0 111.06-1.06l1.97 1.969z"/></svg>
             <text x="0" y="0" class="stat" text-anchor="end">26.1k</text>
        </g>
    
  </svg>
  