
  <svg width="400" height="120" viewBox="0 0 400 120" fill="none" xmlns="http://www.w3.org/2000/svg">
    <style>
      .name { font: 600 18px 'Segoe UI', Ubuntu, Sans-Serif; fill: #006AFF; }
      .description { font: 400 12px 'Segoe UI', Ubuntu, Sans-Serif; fill: #586069; }
      .stat { font: 400 12px 'Segoe UI', Ubuntu, Sans-Serif; fill: #586069; }
      .lang-color { width: 12px; height: 12px; rx: 6px; }
    </style>
    
    <rect x="0.5" y="0.5" rx="4.5" height="99%" width="99%" fill="none" stroke="#e1e4e8" stroke-opacity="0"/>
    
    <g transform="translate(25, 35)">
        <text x="0" y="0" class="name">Unity-Package-Template</text>
    </g>

    <g transform="translate(25, 60)">
        <text x="0" y="0" class="description">Template Unity Package for OpenUPM and NPMJS. Supports </text><text x="0" y="15" class="description">UPM (Unity Package Manager) with versioning. </text>
    </g>

    <g transform="translate(25, 100)">
        <!-- Language -->
        
        <g>
             <circle cx="6" cy="-4" r="6" fill="#C1F12E"/>
             <text x="15" y="0" class="stat">Batchfile</text>
        </g>
        

        <!-- Stars -->
        <g transform="translate(99.8, 0)">
             <svg x="0" y="-10" width="16" height="16" viewBox="0 0 16 16"><path fill="#586069" d="M8 .25a.75.75 0 01.673.418l1.882 3.815 4.21.612a.75.75 0 01.416 1.279l-3.046 2.97.719 4.192a.75.75 0 01-1.088.791L8 12.347l-3.766 1.98a.75.75 0 01-1.088-.79l.72-4.194L.818 6.374a.75.75 0 01.416-1.28l4.21-.611L7.327.668A.75.75 0 018 .25z"/></svg>
             <text x="20" y="0" class="stat">83</text>
        </g>

        <!-- Forks -->
        <g transform="translate(154.2, 0)">
             <svg x="0" y="-10" width="16" height="16" viewBox="0 0 16 16"><path fill="#586069" d="M5 3.25a.75.75 0 11-1.5 0 .75.75 0 011.5 0zm0 2.122a2.25 2.25 0 10-1.5 0v.878A2.25 2.25 0 005.75 8.5h1.5v2.128a2.251 2.251 0 101.5 0V8.5h1.5a2.25 2.25 0 002.25-2.25v-.878a2.25 2.25 0 10-1.5 0v.878a.75.75 0 01-.75.75h-4.5A.75.75 0 015 6.25v-.878zm3.75 7.378a.75.75 0 11-1.5 0 .75.75 0 011.5 0zm3-8.75a.75.75 0 100-1.5.75.75 0 000 1.5z"/></svg>
             <text x="15" y="0" class="stat">5</text>
        </g>
    </g>
  </svg>
  