<svg width="955" height="64" viewBox="0 0 955 64" fill="none" xmlns="http://www.w3.org/2000/svg" role="img" aria-label="Activity pulse: contribution intensity for the last 40 days.">
  <style>
    .pu-cell { opacity: .65; animation: pu-wave 5s ease-in-out infinite; }
    @keyframes pu-wave { 0% { opacity: .65; } 10% { opacity: 1; } 22% { opacity: .65; } 100% { opacity: .65; } }
    @media (prefers-reduced-motion: reduce) { .pu-cell { animation: none; opacity: 1; } }
  </style>
  <rect x="139.5" y="25.5" width="13" height="13" rx="3" fill="#0969da" fill-opacity="0.20" class="pu-cell" style="animation-delay:0.00s"><title>2025-11-22: 4</title></rect><rect x="156.5" y="25.5" width="13" height="13" rx="3" fill="#0969da" fill-opacity="0.56" class="pu-cell" style="animation-delay:0.09s"><title>2025-11-23: 31</title></rect><rect x="173.5" y="25.5" width="13" height="13" rx="3" fill="#0969da" fill-opacity="0.61" class="pu-cell" style="animation-delay:0.17s"><title>2025-11-24: 35</title></rect><rect x="190.5" y="25.5" width="13" height="13" rx="3" fill="#0969da" fill-opacity="0.27" class="pu-cell" style="animation-delay:0.26s"><title>2025-11-25: 9</title></rect><rect x="207.5" y="25.5" width="13" height="13" rx="3" fill="#0969da" fill-opacity="0.67" class="pu-cell" style="animation-delay:0.34s"><title>2025-11-26: 40</title></rect><rect x="224.5" y="25.5" width="13" height="13" rx="3" fill="#0969da" fill-opacity="0.22" class="pu-cell" style="animation-delay:0.43s"><title>2025-11-27: 5</title></rect><rect x="241.5" y="25.5" width="13" height="13" rx="3" fill="#0969da" fill-opacity="0.50" class="pu-cell" style="animation-delay:0.51s"><title>2025-11-28: 27</title></rect><rect x="258.5" y="25.5" width="13" height="13" rx="3" fill="#0969da" fill-opacity="0.66" class="pu-cell" style="animation-delay:0.60s"><title>2025-11-29: 39</title></rect><rect x="275.5" y="25.5" width="13" height="13" rx="3" fill="#0969da" fill-opacity="0.49" class="pu-cell" style="animation-delay:0.68s"><title>2025-11-30: 26</title></rect><rect x="292.5" y="25.5" width="13" height="13" rx="3" fill="#0969da" fill-opacity="0.19" class="pu-cell" style="animation-delay:0.77s"><title>2025-12-01: 3</title></rect><rect x="309.5" y="25.5" width="13" height="13" rx="3" fill="#0969da" fill-opacity="0.19" class="pu-cell" style="animation-delay:0.85s"><title>2025-12-02: 3</title></rect><rect x="326.5" y="25.5" width="13" height="13" rx="3" fill="#0969da" fill-opacity="0.18" class="pu-cell" style="animation-delay:0.94s"><title>2025-12-03: 2</title></rect><rect x="343.5" y="25.5" width="13" height="13" rx="3" fill="#0969da" fill-opacity="0.49" class="pu-cell" style="animation-delay:1.02s"><title>2025-12-04: 26</title></rect><rect x="360.5" y="25.5" width="13" height="13" rx="3" fill="#0969da" fill-opacity="0.49" class="pu-cell" style="animation-delay:1.10s"><title>2025-12-05: 26</title></rect><rect x="377.5" y="25.5" width="13" height="13" rx="3" fill="#0969da" fill-opacity="0.37" class="pu-cell" style="animation-delay:1.19s"><title>2025-12-06: 17</title></rect><rect x="394.5" y="25.5" width="13" height="13" rx="3" fill="#0969da" fill-opacity="0.67" class="pu-cell" style="animation-delay:1.28s"><title>2025-12-07: 40</title></rect><rect x="411.5" y="25.5" width="13" height="13" rx="3" fill="#0969da" fill-opacity="0.56" class="pu-cell" style="animation-delay:1.36s"><title>2025-12-08: 31</title></rect><rect x="428.5" y="25.5" width="13" height="13" rx="3" fill="#0969da" fill-opacity="0.82" class="pu-cell" style="animation-delay:1.45s"><title>2025-12-09: 51</title></rect><rect x="445.5" y="25.5" width="13" height="13" rx="3" fill="#0969da" fill-opacity="0.41" class="pu-cell" style="animation-delay:1.53s"><title>2025-12-10: 20</title></rect><rect x="462.5" y="25.5" width="13" height="13" rx="3" fill="#0969da" fill-opacity="0.23" class="pu-cell" style="animation-delay:1.62s"><title>2025-12-11: 6</title></rect><rect x="479.5" y="25.5" width="13" height="13" rx="3" fill="#0969da" fill-opacity="0.20" class="pu-cell" style="animation-delay:1.70s"><title>2025-12-12: 4</title></rect><rect x="496.5" y="25.5" width="13" height="13" rx="3" fill="#0969da" fill-opacity="0.16" class="pu-cell" style="animation-delay:1.79s"><title>2025-12-13: 1</title></rect><rect x="513.5" y="25.5" width="13" height="13" rx="3" fill="#0969da" fill-opacity="0.25" class="pu-cell" style="animation-delay:1.87s"><title>2025-12-14: 8</title></rect><rect x="530.5" y="25.5" width="13" height="13" rx="3" fill="#0969da" fill-opacity="0.50" class="pu-cell" style="animation-delay:1.96s"><title>2025-12-15: 27</title></rect><rect x="547.5" y="25.5" width="13" height="13" rx="3" fill="#0969da" fill-opacity="0.39" class="pu-cell" style="animation-delay:2.04s"><title>2025-12-16: 18</title></rect><rect x="564.5" y="25.5" width="13" height="13" rx="3" fill="#0969da" fill-opacity="0.60" class="pu-cell" style="animation-delay:2.13s"><title>2025-12-17: 34</title></rect><rect x="581.5" y="25.5" width="13" height="13" rx="3" fill="#0969da" fill-opacity="0.19" class="pu-cell" style="animation-delay:2.21s"><title>2025-12-18: 3</title></rect><rect x="598.5" y="25.5" width="13" height="13" rx="3" fill="#0969da" fill-opacity="0.24" class="pu-cell" style="animation-delay:2.30s"><title>2025-12-19: 7</title></rect><rect x="615.5" y="25.5" width="13" height="13" rx="3" fill="#0969da" fill-opacity="0.19" class="pu-cell" style="animation-delay:2.38s"><title>2025-12-20: 3</title></rect><rect x="632.5" y="25.5" width="13" height="13" rx="3" fill="#0969da" fill-opacity="0.19" class="pu-cell" style="animation-delay:2.47s"><title>2025-12-21: 3</title></rect><rect x="649.5" y="25.5" width="13" height="13" rx="3" fill="#0969da" fill-opacity="0.56" class="pu-cell" style="animation-delay:2.55s"><title>2025-12-22: 31</title></rect><rect x="666.5" y="25.5" width="13" height="13" rx="3" fill="#0969da" fill-opacity="0.66" class="pu-cell" style="animation-delay:2.64s"><title>2025-12-23: 39</title></rect><rect x="683.5" y="25.5" width="13" height="13" rx="3" fill="#0969da" fill-opacity="0.35" class="pu-cell" style="animation-delay:2.72s"><title>2025-12-24: 15</title></rect><rect x="700.5" y="25.5" width="13" height="13" rx="3" fill="#0969da" fill-opacity="0.24" class="pu-cell" style="animation-delay:2.81s"><title>2025-12-25: 7</title></rect><rect x="717.5" y="25.5" width="13" height="13" rx="3" fill="#0969da" fill-opacity="0.95" class="pu-cell" style="animation-delay:2.89s"><title>2025-12-26: 61</title></rect><rect x="734.5" y="25.5" width="13" height="13" rx="3" fill="#0969da" fill-opacity="0.69" class="pu-cell" style="animation-delay:2.98s"><title>2025-12-27: 41</title></rect><rect x="751.5" y="25.5" width="13" height="13" rx="3" fill="#0969da" fill-opacity="0.79" class="pu-cell" style="animation-delay:3.06s"><title>2025-12-28: 49</title></rect><rect x="768.5" y="25.5" width="13" height="13" rx="3" fill="#0969da" fill-opacity="0.66" class="pu-cell" style="animation-delay:3.15s"><title>2025-12-29: 39</title></rect><rect x="785.5" y="25.5" width="13" height="13" rx="3" fill="#0969da" fill-opacity="0.15" class="pu-cell" style="animation-delay:3.23s"><title>2025-12-30: 0</title></rect><rect x="802.5" y="25.5" width="13" height="13" rx="3" fill="#0969da" fill-opacity="0.22" class="pu-cell" style="animation-delay:3.32s"><title>2025-12-31: 5</title></rect>
</svg>