<svg width="955" height="64" viewBox="0 0 955 64" fill="none" xmlns="http://www.w3.org/2000/svg" role="img" aria-label="Activity pulse: contribution intensity for the last 40 days.">
  <style>
    .pu-cell { opacity: .65; animation: pu-wave 5s ease-in-out infinite; }
    @keyframes pu-wave { 0% { opacity: .65; } 10% { opacity: 1; } 22% { opacity: .65; } 100% { opacity: .65; } }
    @media (prefers-reduced-motion: reduce) { .pu-cell { animation: none; opacity: 1; } }
  </style>
  <rect x="139.5" y="25.5" width="13" height="13" rx="3" fill="#2f81f7" fill-opacity="0.77" class="pu-cell" style="animation-delay:0.00s"><title>2026-06-04: 243</title></rect><rect x="156.5" y="25.5" width="13" height="13" rx="3" fill="#2f81f7" fill-opacity="0.67" class="pu-cell" style="animation-delay:0.09s"><title>2026-06-05: 201</title></rect><rect x="173.5" y="25.5" width="13" height="13" rx="3" fill="#2f81f7" fill-opacity="0.43" class="pu-cell" style="animation-delay:0.17s"><title>2026-06-06: 108</title></rect><rect x="190.5" y="25.5" width="13" height="13" rx="3" fill="#2f81f7" fill-opacity="0.37" class="pu-cell" style="animation-delay:0.26s"><title>2026-06-07: 84</title></rect><rect x="207.5" y="25.5" width="13" height="13" rx="3" fill="#2f81f7" fill-opacity="0.49" class="pu-cell" style="animation-delay:0.34s"><title>2026-06-08: 134</title></rect><rect x="224.5" y="25.5" width="13" height="13" rx="3" fill="#2f81f7" fill-opacity="0.35" class="pu-cell" style="animation-delay:0.43s"><title>2026-06-09: 77</title></rect><rect x="241.5" y="25.5" width="13" height="13" rx="3" fill="#2f81f7" fill-opacity="0.73" class="pu-cell" style="animation-delay:0.51s"><title>2026-06-10: 227</title></rect><rect x="258.5" y="25.5" width="13" height="13" rx="3" fill="#2f81f7" fill-opacity="0.47" class="pu-cell" style="animation-delay:0.60s"><title>2026-06-11: 126</title></rect><rect x="275.5" y="25.5" width="13" height="13" rx="3" fill="#2f81f7" fill-opacity="0.21" class="pu-cell" style="animation-delay:0.68s"><title>2026-06-12: 23</title></rect><rect x="292.5" y="25.5" width="13" height="13" rx="3" fill="#2f81f7" fill-opacity="0.32" class="pu-cell" style="animation-delay:0.77s"><title>2026-06-13: 68</title></rect><rect x="309.5" y="25.5" width="13" height="13" rx="3" fill="#2f81f7" fill-opacity="0.43" class="pu-cell" style="animation-delay:0.85s"><title>2026-06-14: 111</title></rect><rect x="326.5" y="25.5" width="13" height="13" rx="3" fill="#2f81f7" fill-opacity="0.37" class="pu-cell" style="animation-delay:0.94s"><title>2026-06-15: 84</title></rect><rect x="343.5" y="25.5" width="13" height="13" rx="3" fill="#2f81f7" fill-opacity="0.45" class="pu-cell" style="animation-delay:1.02s"><title>2026-06-16: 116</title></rect><rect x="360.5" y="25.5" width="13" height="13" rx="3" fill="#2f81f7" fill-opacity="0.51" class="pu-cell" style="animation-delay:1.10s"><title>2026-06-17: 141</title></rect><rect x="377.5" y="25.5" width="13" height="13" rx="3" fill="#2f81f7" fill-opacity="0.54" class="pu-cell" style="animation-delay:1.19s"><title>2026-06-18: 152</title></rect><rect x="394.5" y="25.5" width="13" height="13" rx="3" fill="#2f81f7" fill-opacity="0.57" class="pu-cell" style="animation-delay:1.28s"><title>2026-06-19: 165</title></rect><rect x="411.5" y="25.5" width="13" height="13" rx="3" fill="#2f81f7" fill-opacity="0.43" class="pu-cell" style="animation-delay:1.36s"><title>2026-06-20: 110</title></rect><rect x="428.5" y="25.5" width="13" height="13" rx="3" fill="#2f81f7" fill-opacity="0.21" class="pu-cell" style="animation-delay:1.45s"><title>2026-06-21: 22</title></rect><rect x="445.5" y="25.5" width="13" height="13" rx="3" fill="#2f81f7" fill-opacity="0.51" class="pu-cell" style="animation-delay:1.53s"><title>2026-06-22: 139</title></rect><rect x="462.5" y="25.5" width="13" height="13" rx="3" fill="#2f81f7" fill-opacity="0.36" class="pu-cell" style="animation-delay:1.62s"><title>2026-06-23: 82</title></rect><rect x="479.5" y="25.5" width="13" height="13" rx="3" fill="#2f81f7" fill-opacity="0.24" class="pu-cell" style="animation-delay:1.70s"><title>2026-06-24: 34</title></rect><rect x="496.5" y="25.5" width="13" height="13" rx="3" fill="#2f81f7" fill-opacity="0.51" class="pu-cell" style="animation-delay:1.79s"><title>2026-06-25: 140</title></rect><rect x="513.5" y="25.5" width="13" height="13" rx="3" fill="#2f81f7" fill-opacity="0.36" class="pu-cell" style="animation-delay:1.87s"><title>2026-06-26: 80</title></rect><rect x="530.5" y="25.5" width="13" height="13" rx="3" fill="#2f81f7" fill-opacity="0.39" class="pu-cell" style="animation-delay:1.96s"><title>2026-06-27: 92</title></rect><rect x="547.5" y="25.5" width="13" height="13" rx="3" fill="#2f81f7" fill-opacity="0.49" class="pu-cell" style="animation-delay:2.04s"><title>2026-06-28: 131</title></rect><rect x="564.5" y="25.5" width="13" height="13" rx="3" fill="#2f81f7" fill-opacity="0.55" class="pu-cell" style="animation-delay:2.13s"><title>2026-06-29: 155</title></rect><rect x="581.5" y="25.5" width="13" height="13" rx="3" fill="#2f81f7" fill-opacity="0.64" class="pu-cell" style="animation-delay:2.21s"><title>2026-06-30: 192</title></rect><rect x="598.5" y="25.5" width="13" height="13" rx="3" fill="#2f81f7" fill-opacity="0.51" class="pu-cell" style="animation-delay:2.30s"><title>2026-07-01: 141</title></rect><rect x="615.5" y="25.5" width="13" height="13" rx="3" fill="#2f81f7" fill-opacity="0.70" class="pu-cell" style="animation-delay:2.38s"><title>2026-07-02: 213</title></rect><rect x="632.5" y="25.5" width="13" height="13" rx="3" fill="#2f81f7" fill-opacity="0.54" class="pu-cell" style="animation-delay:2.47s"><title>2026-07-03: 152</title></rect><rect x="649.5" y="25.5" width="13" height="13" rx="3" fill="#2f81f7" fill-opacity="0.43" class="pu-cell" style="animation-delay:2.55s"><title>2026-07-04: 111</title></rect><rect x="666.5" y="25.5" width="13" height="13" rx="3" fill="#2f81f7" fill-opacity="0.32" class="pu-cell" style="animation-delay:2.64s"><title>2026-07-05: 66</title></rect><rect x="683.5" y="25.5" width="13" height="13" rx="3" fill="#2f81f7" fill-opacity="0.32" class="pu-cell" style="animation-delay:2.72s"><title>2026-07-06: 68</title></rect><rect x="700.5" y="25.5" width="13" height="13" rx="3" fill="#2f81f7" fill-opacity="0.34" class="pu-cell" style="animation-delay:2.81s"><title>2026-07-07: 74</title></rect><rect x="717.5" y="25.5" width="13" height="13" rx="3" fill="#2f81f7" fill-opacity="0.52" class="pu-cell" style="animation-delay:2.89s"><title>2026-07-08: 143</title></rect><rect x="734.5" y="25.5" width="13" height="13" rx="3" fill="#2f81f7" fill-opacity="0.63" class="pu-cell" style="animation-delay:2.98s"><title>2026-07-09: 187</title></rect><rect x="751.5" y="25.5" width="13" height="13" rx="3" fill="#2f81f7" fill-opacity="0.63" class="pu-cell" style="animation-delay:3.06s"><title>2026-07-10: 187</title></rect><rect x="768.5" y="25.5" width="13" height="13" rx="3" fill="#2f81f7" fill-opacity="0.95" class="pu-cell" style="animation-delay:3.15s"><title>2026-07-11: 312</title></rect><rect x="785.5" y="25.5" width="13" height="13" rx="3" fill="#2f81f7" fill-opacity="0.91" class="pu-cell" style="animation-delay:3.23s"><title>2026-07-12: 297</title></rect><rect x="802.5" y="25.5" width="13" height="13" rx="3" fill="#2f81f7" fill-opacity="0.40" class="pu-cell" style="animation-delay:3.32s"><title>2026-07-13: 99</title></rect>
</svg>