<svg width="955" height="270" viewBox="0 0 955 270" fill="none" xmlns="http://www.w3.org/2000/svg" role="img" aria-label="Commits per month, last 3 years. Total 16941, average 471 per month, peak 3551.">
  <style>
    .m-title { font: 600 18px 'Segoe UI', Ubuntu, sans-serif; fill: #1f2328; }
    .m-sub { font: 400 12px 'Segoe UI', Ubuntu, sans-serif; fill: #656d76; }
    .m-tick { font: 400 10px 'Segoe UI', Ubuntu, sans-serif; fill: #656d76; }
    .m-now { font: 600 9px 'Segoe UI', Ubuntu, sans-serif; fill: #0969da; letter-spacing: 1px; }
    .m-grid { stroke: #eaeef2; stroke-width: 1; }
    .m-sep { stroke: #eaeef2; stroke-width: 1; stroke-dasharray: 3 3; }
    .m-cv { font: 700 20px 'Segoe UI', Ubuntu, sans-serif; fill: #1f2328; }
    .m-cl { font: 600 9px 'Segoe UI', Ubuntu, sans-serif; fill: #656d76; letter-spacing: 1px; }
    .m-peak { font: 600 11px 'Segoe UI', Ubuntu, sans-serif; fill: #1f2328; }
    #m-nowGlow { opacity: .2; animation: breathe 2.8s ease-in-out infinite alternate; }
    #m-ping { transform-box: fill-box; transform-origin: center; animation: ping 2.6s ease-out infinite; }
    #m-shine { animation: sweep 7s linear infinite; }
    
    @keyframes breathe { from { opacity: .15; } to { opacity: .5; } }
    @keyframes ping { 0% { transform: scale(.5); opacity: .8; } 55% { transform: scale(2.4); opacity: 0; } 100% { transform: scale(2.4); opacity: 0; } }
    @keyframes sweep { 0% { transform: translateX(0) skewX(-14deg); } 22% { transform: translateX(1115px) skewX(-14deg); } 100% { transform: translateX(1115px) skewX(-14deg); } }
  
    @media (prefers-reduced-motion: reduce) {
      #m-nowGlow { animation: none; opacity: .3; }
      #m-ping, #m-shine { animation: none; display: none; }
    }
  </style>
  <defs>
    <linearGradient id="m-barGrad" x1="0" y1="0" x2="0" y2="1">
      <stop offset="0" stop-color="#0969da"/>
      <stop offset="1" stop-color="#0969da" stop-opacity="0.6"/>
    </linearGradient>
    <linearGradient id="m-shineGrad" x1="0" y1="0" x2="1" y2="0">
      <stop offset="0" stop-color="rgba(255,255,255,0.55)" stop-opacity="0"/>
      <stop offset="0.5" stop-color="rgba(255,255,255,0.55)"/>
      <stop offset="1" stop-color="rgba(255,255,255,0.55)" stop-opacity="0"/>
    </linearGradient>
    <clipPath id="m-plotClip"><rect x="52" y="68" width="879" height="158"/></clipPath>
    <clipPath id="m-barsClip"><rect x="56.2" y="218.0" width="16" height="12.0" rx="3.5"/><rect x="80.6" y="224.7" width="16" height="6.0" rx="3.5"/><rect x="105.0" y="225.5" width="16" height="6.0" rx="3.5"/><rect x="129.5" y="214.5" width="16" height="15.5" rx="3.5"/><rect x="153.9" y="222.4" width="16" height="7.6" rx="3.5"/><rect x="178.3" y="212.1" width="16" height="17.9" rx="3.5"/><rect x="202.7" y="218.3" width="16" height="11.7" rx="3.5"/><rect x="227.1" y="218.4" width="16" height="11.6" rx="3.5"/><rect x="251.5" y="220.3" width="16" height="9.7" rx="3.5"/><rect x="276.0" y="222.4" width="16" height="7.6" rx="3.5"/><rect x="300.4" y="224.9" width="16" height="6.0" rx="3.5"/><rect x="324.8" y="225.0" width="16" height="6.0" rx="3.5"/><rect x="349.2" y="225.2" width="16" height="6.0" rx="3.5"/><rect x="373.6" y="225.7" width="16" height="6.0" rx="3.5"/><rect x="398.0" y="224.1" width="16" height="6.0" rx="3.5"/><rect x="422.5" y="224.9" width="16" height="6.0" rx="3.5"/><rect x="446.9" y="224.0" width="16" height="6.0" rx="3.5"/><rect x="471.3" y="224.9" width="16" height="6.0" rx="3.5"/><rect x="495.7" y="217.9" width="16" height="12.1" rx="3.5"/><rect x="520.1" y="219.7" width="16" height="10.3" rx="3.5"/><rect x="544.5" y="203.0" width="16" height="27.0" rx="3.5"/><rect x="569.0" y="211.7" width="16" height="18.3" rx="3.5"/><rect x="593.4" y="221.4" width="16" height="8.6" rx="3.5"/><rect x="617.8" y="216.9" width="16" height="13.1" rx="3.5"/><rect x="642.2" y="210.7" width="16" height="19.3" rx="3.5"/><rect x="666.6" y="207.4" width="16" height="22.6" rx="3.5"/><rect x="691.0" y="213.3" width="16" height="16.7" rx="3.5"/><rect x="715.5" y="205.5" width="16" height="24.5" rx="3.5"/><rect x="739.9" y="202.4" width="16" height="27.6" rx="3.5"/><rect x="764.3" y="196.3" width="16" height="33.7" rx="3.5"/><rect x="788.7" y="195.2" width="16" height="34.8" rx="3.5"/><rect x="813.1" y="176.8" width="16" height="53.2" rx="3.5"/><rect x="837.5" y="203.1" width="16" height="26.9" rx="3.5"/><rect x="862.0" y="156.9" width="16" height="73.1" rx="3.5"/><rect x="886.4" y="91.1" width="16" height="138.9" rx="3.5"/><rect x="910.8" y="147.8" width="16" height="82.2" rx="3.5"/></clipPath>
    <filter id="m-glow" x="-60%" y="-60%" width="220%" height="220%"><feGaussianBlur stdDeviation="5"/></filter>
  </defs>

  <rect x="0.5" y="0.5" rx="6" width="954" height="269" fill="#ffffff" stroke="#d0d7de"/>
  <text class="m-title" x="25" y="38">Commits per month</text>
  <text class="m-sub" x="25" y="57">Aug 2023 — Jul 2026 · last 36 months · GitHub contributions</text>
  <g>
      <text x="565" y="40" text-anchor="end" class="m-cv">16 941</text>
      <text x="565" y="56" text-anchor="end" class="m-cl">TOTAL / 3Y</text>
    </g><g>
      <text x="687" y="40" text-anchor="end" class="m-cv">471</text>
      <text x="687" y="56" text-anchor="end" class="m-cl">AVG / MONTH</text>
    </g><g>
      <text x="809" y="40" text-anchor="end" class="m-cv">3 551</text>
      <text x="809" y="56" text-anchor="end" class="m-cl">PEAK · JUN 2026</text>
    </g><g>
      <text x="931" y="40" text-anchor="end" class="m-cv">2 057</text>
      <text x="931" y="56" text-anchor="end" class="m-cl">THIS MONTH</text>
    </g>
  <g><line class="m-grid" x1="52" y1="226.0" x2="931" y2="226.0"/><text class="m-tick" x="44" y="229.5" text-anchor="end">0</text><line class="m-grid" x1="52" y1="188.0" x2="931" y2="188.0"/><text class="m-tick" x="44" y="191.5" text-anchor="end">1k</text><line class="m-grid" x1="52" y1="150.0" x2="931" y2="150.0"/><text class="m-tick" x="44" y="153.5" text-anchor="end">2k</text><line class="m-grid" x1="52" y1="112.0" x2="931" y2="112.0"/><text class="m-tick" x="44" y="115.5" text-anchor="end">3k</text><line class="m-grid" x1="52" y1="74.0" x2="931" y2="74.0"/><text class="m-tick" x="44" y="77.5" text-anchor="end">4k</text><line class="m-sep" x1="174.1" y1="74" x2="174.1" y2="226"/><line class="m-sep" x1="467.1" y1="74" x2="467.1" y2="226"/><line class="m-sep" x1="760.1" y1="74" x2="760.1" y2="226"/></g>
  <g clip-path="url(#m-plotClip)">
    <rect id="m-nowGlow" x="906.8" y="143.8" width="24" height="86.2" rx="6" fill="#0969da" filter="url(#m-glow)"/>
    <rect x="56.2" y="218.0" width="16" height="12.0" rx="3.5" fill="url(#m-barGrad)"/><rect x="80.6" y="224.7" width="16" height="6.0" rx="3.5" fill="url(#m-barGrad)"/><rect x="105.0" y="225.5" width="16" height="6.0" rx="3.5" fill="url(#m-barGrad)"/><rect x="129.5" y="214.5" width="16" height="15.5" rx="3.5" fill="url(#m-barGrad)"/><rect x="153.9" y="222.4" width="16" height="7.6" rx="3.5" fill="url(#m-barGrad)"/><rect x="178.3" y="212.1" width="16" height="17.9" rx="3.5" fill="url(#m-barGrad)"/><rect x="202.7" y="218.3" width="16" height="11.7" rx="3.5" fill="url(#m-barGrad)"/><rect x="227.1" y="218.4" width="16" height="11.6" rx="3.5" fill="url(#m-barGrad)"/><rect x="251.5" y="220.3" width="16" height="9.7" rx="3.5" fill="url(#m-barGrad)"/><rect x="276.0" y="222.4" width="16" height="7.6" rx="3.5" fill="url(#m-barGrad)"/><rect x="300.4" y="224.9" width="16" height="6.0" rx="3.5" fill="url(#m-barGrad)"/><rect x="324.8" y="225.0" width="16" height="6.0" rx="3.5" fill="url(#m-barGrad)"/><rect x="349.2" y="225.2" width="16" height="6.0" rx="3.5" fill="url(#m-barGrad)"/><rect x="373.6" y="225.7" width="16" height="6.0" rx="3.5" fill="url(#m-barGrad)"/><rect x="398.0" y="224.1" width="16" height="6.0" rx="3.5" fill="url(#m-barGrad)"/><rect x="422.5" y="224.9" width="16" height="6.0" rx="3.5" fill="url(#m-barGrad)"/><rect x="446.9" y="224.0" width="16" height="6.0" rx="3.5" fill="url(#m-barGrad)"/><rect x="471.3" y="224.9" width="16" height="6.0" rx="3.5" fill="url(#m-barGrad)"/><rect x="495.7" y="217.9" width="16" height="12.1" rx="3.5" fill="url(#m-barGrad)"/><rect x="520.1" y="219.7" width="16" height="10.3" rx="3.5" fill="url(#m-barGrad)"/><rect x="544.5" y="203.0" width="16" height="27.0" rx="3.5" fill="url(#m-barGrad)"/><rect x="569.0" y="211.7" width="16" height="18.3" rx="3.5" fill="url(#m-barGrad)"/><rect x="593.4" y="221.4" width="16" height="8.6" rx="3.5" fill="url(#m-barGrad)"/><rect x="617.8" y="216.9" width="16" height="13.1" rx="3.5" fill="url(#m-barGrad)"/><rect x="642.2" y="210.7" width="16" height="19.3" rx="3.5" fill="url(#m-barGrad)"/><rect x="666.6" y="207.4" width="16" height="22.6" rx="3.5" fill="url(#m-barGrad)"/><rect x="691.0" y="213.3" width="16" height="16.7" rx="3.5" fill="url(#m-barGrad)"/><rect x="715.5" y="205.5" width="16" height="24.5" rx="3.5" fill="url(#m-barGrad)"/><rect x="739.9" y="202.4" width="16" height="27.6" rx="3.5" fill="url(#m-barGrad)"/><rect x="764.3" y="196.3" width="16" height="33.7" rx="3.5" fill="url(#m-barGrad)"/><rect x="788.7" y="195.2" width="16" height="34.8" rx="3.5" fill="url(#m-barGrad)"/><rect x="813.1" y="176.8" width="16" height="53.2" rx="3.5" fill="url(#m-barGrad)"/><rect x="837.5" y="203.1" width="16" height="26.9" rx="3.5" fill="url(#m-barGrad)"/><rect x="862.0" y="156.9" width="16" height="73.1" rx="3.5" fill="url(#m-barGrad)"/><rect x="886.4" y="91.1" width="16" height="138.9" rx="3.5" fill="url(#m-barGrad)"/><rect x="910.8" y="147.8" width="16" height="82.2" rx="3.5" fill="url(#m-barGrad)"/>
    <g clip-path="url(#m-barsClip)">
      <rect id="m-shine" x="-150" y="68" width="110" height="158" fill="url(#m-shineGrad)" style="transform: skewX(-14deg)"/>
    </g>
  </g>
  <line x1="52" y1="226.5" x2="931" y2="226.5" stroke="#d0d7de" stroke-width="1"/>
  <g><text class="m-tick" x="186.3" y="244" text-anchor="middle">2024</text><text class="m-tick" x="479.3" y="244" text-anchor="middle">2025</text><text class="m-tick" x="772.3" y="244" text-anchor="middle">2026</text><text class="m-now" x="918.8" y="244" text-anchor="middle">NOW</text></g>
  <text class="m-peak" x="894.4" y="83.1" text-anchor="middle">3 551</text>
  <g>
    <circle id="m-ping" cx="918.8" cy="136.8" r="4" fill="none" stroke="#0969da" stroke-width="1.5"/>
    <circle cx="918.8" cy="136.8" r="3" fill="#0969da"/>
  </g>
</svg>